<mxfile host="app.diagrams.net" agent="Mozilla/5.0 (Windows NT 10.0; Win64; x64) AppleWebKit/537.36 (KHTML, like Gecko) Chrome/129.0.0.0 Safari/537.36" version="24.7.17">
  <diagram name="Página-1" id="vdATVObaxi2iRE5QDSZw">
    <mxGraphModel dx="1676" dy="2178" grid="1" gridSize="10" guides="1" tooltips="1" connect="1" arrows="1" fold="1" page="1" pageScale="1" pageWidth="827" pageHeight="1169" math="0" shadow="0">
      <root>
        <mxCell id="0" />
        <mxCell id="1" parent="0" />
        <mxCell id="KAWedj5G85UyYA7gfEau-2" value="Quartos" style="whiteSpace=wrap;html=1;align=center;" vertex="1" parent="1">
          <mxGeometry x="-620" y="-290" width="100" height="40" as="geometry" />
        </mxCell>
        <mxCell id="KAWedj5G85UyYA7gfEau-3" value="Custo" style="whiteSpace=wrap;html=1;align=center;" vertex="1" parent="1">
          <mxGeometry x="-620" y="20" width="100" height="40" as="geometry" />
        </mxCell>
        <mxCell id="KAWedj5G85UyYA7gfEau-4" value="Política" style="whiteSpace=wrap;html=1;align=center;" vertex="1" parent="1">
          <mxGeometry x="-430" y="20" width="100" height="40" as="geometry" />
        </mxCell>
        <mxCell id="KAWedj5G85UyYA7gfEau-5" value="Instalações" style="whiteSpace=wrap;html=1;align=center;" vertex="1" parent="1">
          <mxGeometry x="-240" y="20" width="100" height="40" as="geometry" />
        </mxCell>
        <mxCell id="KAWedj5G85UyYA7gfEau-6" value="Hotel" style="whiteSpace=wrap;html=1;align=center;" vertex="1" parent="1">
          <mxGeometry x="-260" y="-290" width="100" height="40" as="geometry" />
        </mxCell>
        <mxCell id="KAWedj5G85UyYA7gfEau-7" value="Gerente" style="whiteSpace=wrap;html=1;align=center;" vertex="1" parent="1">
          <mxGeometry x="-20" y="20" width="100" height="40" as="geometry" />
        </mxCell>
        <mxCell id="KAWedj5G85UyYA7gfEau-8" value="Localização" style="whiteSpace=wrap;html=1;align=center;" vertex="1" parent="1">
          <mxGeometry x="100" y="-380" width="100" height="40" as="geometry" />
        </mxCell>
        <mxCell id="KAWedj5G85UyYA7gfEau-9" value="Custo_por_noite&lt;span style=&quot;color: rgba(0, 0, 0, 0); font-family: monospace; font-size: 0px; text-align: start; text-wrap: nowrap;&quot;&gt;%3CmxGraphModel%3E%3Croot%3E%3CmxCell%20id%3D%220%22%2F%3E%3CmxCell%20id%3D%221%22%20parent%3D%220%22%2F%3E%3CmxCell%20id%3D%222%22%20value%3D%22Instala%C3%A7%C3%B5es%22%20style%3D%22whiteSpace%3Dwrap%3Bhtml%3D1%3Balign%3Dcenter%3B%22%20vertex%3D%221%22%20parent%3D%221%22%3E%3CmxGeometry%20x%3D%2220%22%20y%3D%22-220%22%20width%3D%22100%22%20height%3D%2240%22%20as%3D%22geometry%22%2F%3E%3C%2FmxCell%3E%3C%2Froot%3E%3C%2FmxGraphModel%3E&lt;/span&gt;" style="shape=rhombus;perimeter=rhombusPerimeter;whiteSpace=wrap;html=1;align=center;" vertex="1" parent="1">
          <mxGeometry x="-630" y="-160" width="120" height="60" as="geometry" />
        </mxCell>
        <mxCell id="KAWedj5G85UyYA7gfEau-10" value="Has_room" style="shape=rhombus;perimeter=rhombusPerimeter;whiteSpace=wrap;html=1;align=center;" vertex="1" parent="1">
          <mxGeometry x="-450" y="-300" width="120" height="60" as="geometry" />
        </mxCell>
        <mxCell id="KAWedj5G85UyYA7gfEau-11" value="Has_policy" style="shape=rhombus;perimeter=rhombusPerimeter;whiteSpace=wrap;html=1;align=center;" vertex="1" parent="1">
          <mxGeometry x="-440" y="-160" width="120" height="60" as="geometry" />
        </mxCell>
        <mxCell id="KAWedj5G85UyYA7gfEau-12" value="Has_facilidades" style="shape=rhombus;perimeter=rhombusPerimeter;whiteSpace=wrap;html=1;align=center;" vertex="1" parent="1">
          <mxGeometry x="-250" y="-160" width="120" height="60" as="geometry" />
        </mxCell>
      </root>
    </mxGraphModel>
  </diagram>
</mxfile>
